# xmcd
#
# Track frame offsets:
#	150
#	21324
#	43746
#	69408
#	97613
#	118329
#	140403
#	163050
#	193166
#	216174
#
# Disc length: 3406 seconds
#
# Revision: 0
# Processed by: cddbd v1.5.2PL0 Copyright (c) Steve Scherf et al.
# Submitted via: EasyCDDAExtractor 12.1.0.1
#
DISCID=900d4c0a
DTITLE=Richard Earnshaw - In Time
DYEAR=2010
DGENRE=Soul
TTITLE0=Good Love (ft Eric Dillard)
TTITLE1=My Door Is Open (ft Carleen Anderson)
TTITLE2=Worthy (ft Jocelyn Brown)
TTITLE3=Rise (ft Ursula Rucker and Roy Ayers)
TTITLE4=Circles (ft Nina Jayne)
TTITLE5=Green Room
TTITLE6=Young And Foolish (ft Natasha Bridges)
TTITLE7=Waiting (ft Kenny Thomas)
TTITLE8=Cry Me A River (ft Imogen Ryall)
TTITLE9=In Time (ft Erik Dillard and Roy Ayers)
EXTD=
EXTT0=
EXTT1=
EXTT2=
EXTT3=
EXTT4=
EXTT5=
EXTT6=
EXTT7=
EXTT8=
EXTT9=
PLAYORDER=
